<svg width="1458" height="1414" xmlns="http://www.w3.org/2000/svg" xmlns:xlink="http://www.w3.org/1999/xlink" xml:space="preserve" overflow="hidden"><defs><filter id="fx0" x="-10%" y="-10%" width="120%" height="120%" filterUnits="userSpaceOnUse" primitiveUnits="userSpaceOnUse"><feComponentTransfer color-interpolation-filters="sRGB"><feFuncR type="discrete" tableValues="0 0"/><feFuncG type="discrete" tableValues="0 0"/><feFuncB type="discrete" tableValues="0 0"/><feFuncA type="linear" slope="0.301961" intercept="0"/></feComponentTransfer><feGaussianBlur stdDeviation="7.63889 7.63889"/></filter><clipPath id="clip1"><rect x="1451" y="709" width="1458" height="1414"/></clipPath></defs><g clip-path="url(#clip1)" transform="translate(-1451 -709)"><g filter="url(#fx0)" transform="matrix(2 0 0 2 1451 708)"><g><path d="M315.241 465.241 341.741 514.491 315.241 563.741 288.741 514.491 315.241 465.241Z" stroke="#6482AD" stroke-width="4" stroke-miterlimit="8" fill="#6482AD" fill-rule="evenodd"/><path d="M26.7409 25.7411 79.4354 25.7411 103.241 69.7411 50.5471 69.7411 26.7409 25.7411Z" stroke="#6482AD" stroke-width="4" stroke-miterlimit="8" fill="#6482AD" fill-rule="evenodd"/><path d="M175.741 25.7411 228.435 25.7411 252.241 69.7411 199.547 69.7411 175.741 25.7411Z" stroke="#6482AD" stroke-width="4" stroke-miterlimit="8" fill="#6482AD" fill-rule="evenodd"/><path d="M460.776 194.241 487.241 243.371 416.206 375.241 389.741 326.112 460.776 194.241Z" stroke="#6482AD" stroke-width="4" stroke-miterlimit="8" fill="#6482AD" fill-rule="evenodd"/><path d="M389.991 326.241 416.241 375.24 389.991 424.241 363.741 375.24 389.991 326.241Z" stroke="#6482AD" stroke-width="4" stroke-miterlimit="8" fill="#6482AD" fill-rule="evenodd"/><path d="M377.741 581.741 404.241 630.991 377.741 680.241 351.241 630.991 377.741 581.741Z" stroke="#6482AD" stroke-width="4" stroke-miterlimit="8" fill="#6482AD" fill-rule="evenodd"/><path d="M79.2407 25.7411 175.878 25.7411 199.741 69.7411 103.104 69.7411 79.2407 25.7411Z" stroke="#6482AD" stroke-width="4" stroke-miterlimit="8" fill="#6482AD" fill-rule="evenodd"/><path d="M50.2411 69.7409 103.03 69.7409 315.241 465.07 288.846 514.241 50.2411 69.7409Z" stroke="#6482AD" stroke-width="4" stroke-miterlimit="8" fill="#6482AD" fill-rule="evenodd"/><path d="M199.741 69.7409 252.442 69.7409 389.741 326.05 363.39 375.241 199.741 69.7409Z" stroke="#6482AD" stroke-width="4" stroke-miterlimit="8" fill="#6482AD" fill-rule="evenodd"/><path d="M425.911 491.741 452.241 540.866 404.071 630.741 377.741 581.617 425.911 491.741Z" stroke="#6482AD" stroke-width="4" stroke-miterlimit="8" fill="#6482AD" fill-rule="evenodd"/><path d="M341.624 514.241 377.741 581.564 351.359 630.741 315.241 563.418 341.624 514.241Z" stroke="#6482AD" stroke-width="4" stroke-miterlimit="8" fill="#6482AD" fill-rule="evenodd"/><path d="M452.491 442.741 478.741 491.741 452.491 540.741 426.241 491.741 452.491 442.741Z" stroke="#6482AD" stroke-width="4" stroke-miterlimit="8" fill="#6482AD" fill-rule="evenodd"/><path d="M416.123 375.241 452.241 442.564 425.859 491.741 389.741 424.418 416.123 375.241Z" stroke="#6482AD" stroke-width="4" stroke-miterlimit="8" fill="#6482AD" fill-rule="evenodd"/></g></g><path d="M2075 1632 2128 1730.5 2075 1829 2022 1730.5 2075 1632Z" stroke="#6482AD" stroke-width="8.02083" stroke-miterlimit="8" fill="#6482AD" fill-rule="evenodd"/><path d="M1498 753 1603.39 753 1651 841 1545.61 841 1498 753Z" stroke="#6482AD" stroke-width="8.02083" stroke-miterlimit="8" fill="#6482AD" fill-rule="evenodd"/><path d="M1796 753 1901.39 753 1949 841 1843.61 841 1796 753Z" stroke="#6482AD" stroke-width="8.02083" stroke-miterlimit="8" fill="#6482AD" fill-rule="evenodd"/><path d="M2366.07 1090 2419 1188.26 2276.93 1452 2224 1353.74 2366.07 1090Z" stroke="#6482AD" stroke-width="8.02083" stroke-miterlimit="8" fill="#6482AD" fill-rule="evenodd"/><path d="M2224.5 1354 2277 1452 2224.5 1550 2172 1452 2224.5 1354Z" stroke="#6482AD" stroke-width="8.02083" stroke-miterlimit="8" fill="#6482AD" fill-rule="evenodd"/><path d="M2200 1865 2253 1963.5 2200 2062 2147 1963.5 2200 1865Z" stroke="#6482AD" stroke-width="8.02083" stroke-miterlimit="8" fill="#6482AD" fill-rule="evenodd"/><path d="M1603 753 1796.27 753 1844 841 1650.73 841 1603 753Z" stroke="#6482AD" stroke-width="8.02083" stroke-miterlimit="8" fill="#6482AD" fill-rule="evenodd"/><path d="M1545 841 1650.58 841 2075 1631.66 2022.21 1730 1545 841Z" stroke="#6482AD" stroke-width="8.02083" stroke-miterlimit="8" fill="#6482AD" fill-rule="evenodd"/><path d="M1844 841 1949.4 841 2224 1353.62 2171.3 1452 1844 841Z" stroke="#6482AD" stroke-width="8.02083" stroke-miterlimit="8" fill="#6482AD" fill-rule="evenodd"/><path d="M2296.34 1685 2349 1783.25 2252.66 1963 2200 1864.75 2296.34 1685Z" stroke="#6482AD" stroke-width="8.02083" stroke-miterlimit="8" fill="#6482AD" fill-rule="evenodd"/><path d="M2127.77 1730 2200 1864.65 2147.24 1963 2075 1828.35 2127.77 1730Z" stroke="#6482AD" stroke-width="8.02083" stroke-miterlimit="8" fill="#6482AD" fill-rule="evenodd"/><path d="M2349.5 1587 2402 1685 2349.5 1783 2297 1685 2349.5 1587Z" stroke="#6482AD" stroke-width="8.02083" stroke-miterlimit="8" fill="#6482AD" fill-rule="evenodd"/><path d="M2276.77 1452 2349 1586.65 2296.24 1685 2224 1550.35 2276.77 1452Z" stroke="#6482AD" stroke-width="8.02083" stroke-miterlimit="8" fill="#6482AD" fill-rule="evenodd"/><path d="M2546.61 753 2652 753 2604.39 841 2499 841 2546.61 753Z" stroke="#76C7F4" stroke-width="8.02083" stroke-miterlimit="8" fill="#76C7F4" fill-rule="evenodd"/><path d="M2298 753 2403.39 753 2451 841 2345.61 841 2298 753Z" stroke="#76C7F4" stroke-width="8.02083" stroke-miterlimit="8" fill="#76C7F4" fill-rule="evenodd"/><path d="M2796.61 753 2902 753 2854.39 841 2749 840.999 2796.61 753Z" stroke="#76C7F4" stroke-width="8.02083" stroke-miterlimit="8" fill="#76C7F4" fill-rule="evenodd"/><path d="M2475.5 886 2528 984.5 2475.5 1083 2423 984.5 2475.5 886Z" stroke="#76C7F4" stroke-width="8.02083" stroke-miterlimit="8" fill="#76C7F4" fill-rule="evenodd"/><path d="M2600.5 1119 2653 1217 2600.5 1315 2548 1217 2600.5 1119Z" stroke="#76C7F4" stroke-width="8.02083" stroke-miterlimit="8" fill="#76C7F4" fill-rule="evenodd"/><path d="M2404 753 2547 753 2499.33 841 2451.67 841 2404 753Z" stroke="#76C7F4" stroke-width="8.02083" stroke-miterlimit="8" fill="#76C7F4" fill-rule="evenodd"/><path d="M2652.64 753 2797 753.002 2749.36 841 2605 841 2652.64 753Z" stroke="#76C7F4" stroke-width="8.02083" stroke-miterlimit="8" fill="#76C7F4" fill-rule="evenodd"/><path d="M2346 841 2451.23 841 2475 885.499 2422.39 984 2346 841Z" stroke="#76C7F4" stroke-width="8.02083" stroke-miterlimit="8" fill="#76C7F4" fill-rule="evenodd"/><path d="M2749.21 841 2855 841.002 2652.9 1217 2600 1118.59 2749.21 841Z" stroke="#76C7F4" stroke-width="8.02083" stroke-miterlimit="8" fill="#76C7F4" fill-rule="evenodd"/><path d="M2527.77 984 2600 1118.65 2547.24 1217 2475 1082.35 2527.77 984Z" stroke="#76C7F4" stroke-width="8.02083" stroke-miterlimit="8" fill="#76C7F4" fill-rule="evenodd"/><path d="M2547.23 1217 2600 1315.31 2459 1578 2406.53 1480.23 2406.29 1480.67 2406 1480.13 2547.23 1217Z" stroke="#76C7F4" stroke-width="8.02083" stroke-miterlimit="8" fill="#76C7F4" fill-rule="evenodd"/></g></svg>